<svg id="Ebene_1" data-name="Ebene 1" xmlns="http://www.w3.org/2000/svg" viewBox="0 0 300 300">
    <defs>
        <style>
            .cls-1 {
                fill:#c2c8cb;
            }
            .cls-2 {
                fill:#917fb9;
            }
            @media (prefers-color-scheme: light) {
                .cls-1 {
                    fill:#1f1f1f;
                }
            }
        </style>
    </defs>
    <path class="cls-1"
          d="M275.25,41.82a18.27,18.27,0,0,1-12.82-5.31,19.15,19.15,0,0,1-2.25-2.75,16.91,16.91,0,0,1-1.66-3.15,16.2,16.2,0,0,1-1-3.39,17.4,17.4,0,0,1-.36-3.53,17.67,17.67,0,0,1,.36-3.55,16.2,16.2,0,0,1,1-3.39,16.74,16.74,0,0,1,1.66-3.13,18.78,18.78,0,0,1,2.25-2.77,18.36,18.36,0,0,1,16.37-5,19,19,0,0,1,3.39,1.05,17.64,17.64,0,0,1,8.15,6.68A18.71,18.71,0,0,1,292,16.75a18.2,18.2,0,0,1,1,3.39,17.67,17.67,0,0,1,.36,3.55,17.4,17.4,0,0,1-.36,3.53,18.2,18.2,0,0,1-1,3.39,18.91,18.91,0,0,1-1.66,3.15,19.15,19.15,0,0,1-2.25,2.75,18.78,18.78,0,0,1-2.77,2.25,16.74,16.74,0,0,1-3.13,1.66,18.2,18.2,0,0,1-3.39,1A17.67,17.67,0,0,1,275.25,41.82Z"/>
    <path class="cls-1"
          d="M125,270.18a16.69,16.69,0,0,1-11.84-4.91L35.79,188a16.74,16.74,0,0,1,23.68-23.68l77.32,77.33A16.75,16.75,0,0,1,125,270.18Z"/>
    <path class="cls-1"
          d="M24.73,294.45a17.62,17.62,0,0,1-3.53-.36,16.76,16.76,0,0,1-3.39-1,17.44,17.44,0,0,1-3.13-1.68,15.76,15.76,0,0,1-2.77-2.25,17.64,17.64,0,0,1-2.25-2.75A16.74,16.74,0,0,1,8,283.26a16,16,0,0,1-1-3.39,17.82,17.82,0,0,1-.36-3.55,18.29,18.29,0,0,1,5.31-12.82,18.62,18.62,0,0,1,2.75-2.25,17.28,17.28,0,0,1,3.15-1.68,16.76,16.76,0,0,1,3.39-1,18.22,18.22,0,0,1,16.37,4.95,17.64,17.64,0,0,1,2.25,2.75,19.53,19.53,0,0,1,1.66,3.13,18.87,18.87,0,0,1,1,3.41,17.4,17.4,0,0,1,.36,3.53,18.12,18.12,0,0,1-1.4,6.94,18.71,18.71,0,0,1-1.66,3.13,17.64,17.64,0,0,1-2.25,2.75A18.25,18.25,0,0,1,24.73,294.45Z"/>
    <path class="cls-1"
          d="M228.24,244.21a16.68,16.68,0,0,1-11.84-4.9L61.75,84.66A16.74,16.74,0,0,1,85.43,61L240.08,215.63a16.74,16.74,0,0,1-11.84,28.58Z"/>
    <path class="cls-2"
          d="M254.21,142.32A18,18,0,0,1,241.38,137L164.06,59.68A18.14,18.14,0,1,1,189.71,34L267,111.35a18.15,18.15,0,0,1-12.82,31Z"/>
</svg>