<svg id="Ebene_1" data-name="Ebene 1" xmlns="http://www.w3.org/2000/svg" viewBox="0 0 1200 250"><defs><style>.cls-1{fill:#c2c8cb;}.cls-2{fill:#917fb9;}</style></defs><path class="cls-1" d="M125.77,30a7.72,7.72,0,0,1-5.41-2.24,8.15,8.15,0,0,1-1-1.16,7.33,7.33,0,0,1-.7-1.33,7.17,7.17,0,0,1-.44-1.43,7.46,7.46,0,0,1-.15-1.49,7.56,7.56,0,0,1,.15-1.5,7.17,7.17,0,0,1,.44-1.43,7.25,7.25,0,0,1,.7-1.32,8.23,8.23,0,0,1,1-1.17,7.75,7.75,0,0,1,6.91-2.09A7.92,7.92,0,0,1,130,15.94a7.3,7.3,0,0,1,2.12,2.12,7.92,7.92,0,0,1,1.14,2.75,7.56,7.56,0,0,1,.15,1.5,7.46,7.46,0,0,1-.15,1.49,7.89,7.89,0,0,1-.44,1.43,8,8,0,0,1-.7,1.33,8.15,8.15,0,0,1-.95,1.16,8.23,8.23,0,0,1-1.17,1,7.25,7.25,0,0,1-1.32.7,7.89,7.89,0,0,1-1.43.44A7.56,7.56,0,0,1,125.77,30Z"/><path class="cls-1" d="M62.34,126.33a7,7,0,0,1-5-2.07L24.72,91.63a7.06,7.06,0,1,1,10-10l32.63,32.63a7.07,7.07,0,0,1-5,12.06Z"/><path class="cls-1" d="M20.05,136.57a7.53,7.53,0,0,1-1.49-.15,7.14,7.14,0,0,1-1.43-.43,7.29,7.29,0,0,1-1.32-.71,6.66,6.66,0,0,1-1.17-.95,7.63,7.63,0,0,1-1-1.16,7.25,7.25,0,0,1-.7-1.32,7.17,7.17,0,0,1-.44-1.43,7.63,7.63,0,0,1-.15-1.5,7.72,7.72,0,0,1,2.24-5.41,8.15,8.15,0,0,1,1.16-1,7.38,7.38,0,0,1,1.33-.71,7.14,7.14,0,0,1,1.43-.43,7.63,7.63,0,0,1,7.86,3.25,8.34,8.34,0,0,1,.7,1.32,8.24,8.24,0,0,1,.44,1.44,7.46,7.46,0,0,1,.15,1.49,7.63,7.63,0,0,1-.15,1.5,7.92,7.92,0,0,1-1.14,2.75,7.63,7.63,0,0,1-6.37,3.4Z"/><path class="cls-2" d="M201.75,86.43C201.75,62,215.39,46,235.06,46c12.66,0,22.68,7.23,26.82,17.4h.23V16.88h10V125.61h-9.49V109h-.23a28.88,28.88,0,0,1-27.13,17.86C215.47,126.89,201.75,110.77,201.75,86.43Zm10.25,0c0,19.14,9.95,31.64,25,31.64,14.92,0,25.16-12.65,25.16-31.64S251.94,54.78,237,54.78C222,54.78,212,67.29,212,86.43Z"/><path class="cls-2" d="M367.53,103.38c-2.33,13.56-15.07,23.51-32.32,23.51-22,0-35.64-15.37-35.64-40.24,0-24.33,13.79-40.68,35-40.68,20.79,0,33.9,15.29,33.9,38.65v4.22H309.82v.6c0,17.71,10,28.71,25.61,28.71,11.83,0,20.05-6.18,22.23-14.77ZM309.89,80.93h48.37c-.22-15.45-9.64-26.22-23.8-26.22S310.72,65.48,309.89,80.93Z"/><path class="cls-1" d="M590.67,16.88h9.91l-5.21,44.84h.22C600.67,52.08,610.64,46,623,46c17,0,26.53,11.46,24.6,29l-5.59,50.64H632l5.45-49c1.51-13.57-5.12-21.78-18.28-21.78-14,0-24.18,9.87-25.9,24.64l-5.36,46.12h-10Z"/><path class="cls-1" d="M758.14,116.28h22.6l9.06-94.84H767.43l.91-9.36h32.24l-9.86,104.2H814l-.86,9.34H757.22Z"/><path class="cls-1" d="M831.91,116.28h23.45l5.73-60.95h-23.3l.9-9.34h33.1l-6.54,70.29h22.54l-.85,9.34H831Zm34.77-91.59q-4.12,0-5.71-1.78a5.49,5.49,0,0,1-1.34-4.4l.19-2a6.58,6.58,0,0,1,2.17-4.4q1.92-1.77,6-1.77t5.7,1.77a5.54,5.54,0,0,1,1.35,4.4l-.19,2a6.59,6.59,0,0,1-2.16,4.4Q870.81,24.7,866.68,24.69Z"/><path class="cls-1" d="M960,104.62a35.17,35.17,0,0,1-3.69,4.73A28.37,28.37,0,0,1,935.78,118c-14.95,0-23.12-10.14-21.26-26.61.12-1.76.3-3.6.62-5.61A58.67,58.67,0,0,1,916.91,78a38.71,38.71,0,0,1,2.21-5.84c.29-.65.61-1.26.93-1.87l.08-.16c5.66-10.7,14.69-15.57,24.2-15.57h.38c9.37,0,15.88,4.83,18.55,12.63l9.2-4.15c-3.86-10.81-13-17.22-26.23-17.22-21,0-37.27,16.35-41.19,40.69-4,24.86,7.14,40.23,29.15,40.23,14.44,0,26.46-7.2,32.67-17.42Z"/><polygon class="cls-1" points="717.27 45.95 717.27 45.95 717.27 45.95 717.27 45.95"/><path class="cls-1" d="M744.9,86.43C748.46,64.08,738.79,46,717.27,46s-37.15,18.13-40.93,40.48,5.1,40.48,27.62,40.48S741.33,108.79,744.9,86.43ZM705.43,118h0c-16,0-22.36-12.57-19.16-31.58,3.25-19.35,14.23-31.57,29.53-31.57h0c15.31,0,22.28,12.22,19.16,31.57C731.91,105.44,721.41,118,705.43,118Z"/><path class="cls-1" d="M1024.69,45.82c15.86,0,25.85,9.42,24.9,23.2h-9.49c.12-9.26-6.16-15-16.89-15s-18.63,5.64-19.78,13.48c-.94,6.4,3.05,10.32,13.07,12.87l11.13,2.79c15,3.92,20.06,9.64,18.49,20.86-1.85,13.26-15.59,22.67-33.29,22.67-16.8,0-27.53-9.41-26.76-23.19H996c.06,9.26,6.9,15,18.63,15s20.26-5.5,21.42-13.71c1-6.78-2.43-10.4-12.49-13l-12.2-3.16C997.78,85.14,992,78.44,993.57,68,995.48,55.09,1008.32,45.82,1024.69,45.82Z"/><path class="cls-2" d="M426.85,125.65H416.12L386.67,46.51h10.65l24.06,68.57h.22l24.13-68.57h10.5Z"/><path class="cls-1" d="M545.92,46l-2.85,17.39h-.23C540.41,53.2,531.7,46,519.19,46,499.75,46,483.5,62,479.28,86.43s6.72,40.46,26.54,40.46c12.65,0,23.88-7.31,30.05-17.86h.23l-2.72,16.58h9.49l13-79.63ZM509,118.07c-15,0-22.84-12.5-19.56-31.64s15.27-31.65,30.18-31.65,22.81,12.74,19.71,31.65S523.93,118.07,509,118.07Z"/><path class="cls-1" d="M105.93,115.37a7,7,0,0,1-5-2.07L35.68,48a7.06,7.06,0,0,1,10-10l65.26,65.26a7.07,7.07,0,0,1-5,12.06Z"/><path class="cls-2" d="M116.89,72.37a7.59,7.59,0,0,1-5.41-2.24L78.85,37.5A7.65,7.65,0,1,1,89.67,26.68L122.3,59.31a7.65,7.65,0,0,1-5.41,13.06Z"/><path class="cls-1" d="M508.05,202a10.08,10.08,0,0,0-3.38-1.29,17.51,17.51,0,0,0-3.08-.32,16.63,16.63,0,0,0-4.25.57,10.69,10.69,0,0,0-4,2,9.64,9.64,0,0,0-2.9,3.94l4,1.44a8,8,0,0,1,2.44-2.85,7.69,7.69,0,0,1,4.78-1.34,5.88,5.88,0,0,1,4.4,1.49,5.65,5.65,0,0,1,1.46,4.14v.15a1.5,1.5,0,0,1-.74,1.44,6,6,0,0,1-2.31.59c-1.05.12-2.42.28-4.1.5-1.29.17-2.57.39-3.84.68a13.21,13.21,0,0,0-3.48,1.27,6.72,6.72,0,0,0-2.51,2.34,7.2,7.2,0,0,0-.93,3.87,7.87,7.87,0,0,0,4.67,7.52,11.34,11.34,0,0,0,4.79,1,10.41,10.41,0,0,0,4.1-.72,8.32,8.32,0,0,0,2.69-1.76,7.52,7.52,0,0,0,1.44-1.93h.22v3.76h4.26V210.16a10.85,10.85,0,0,0-1.09-5.27A7.53,7.53,0,0,0,508.05,202Zm-.46,16.44a6.5,6.5,0,0,1-.9,3.3,6.78,6.78,0,0,1-2.63,2.57,8.56,8.56,0,0,1-4.27,1,7.22,7.22,0,0,1-4.2-1.13,3.78,3.78,0,0,1-1.65-3.35,3.67,3.67,0,0,1,.87-2.57,5.51,5.51,0,0,1,2.31-1.43,17.83,17.83,0,0,1,3.1-.69l1.8-.22c.74-.1,1.5-.2,2.29-.33a17.52,17.52,0,0,0,2.09-.45,2.53,2.53,0,0,0,1.19-.59Z"/><path class="cls-1" d="M538.57,205.11h-.37c-.31-.49-.75-1.1-1.31-1.86a7.4,7.4,0,0,0-2.42-2,8.65,8.65,0,0,0-4.28-.9,11,11,0,0,0-6.18,1.75,11.68,11.68,0,0,0-4.17,5,20,20,0,0,0,0,15.21,11.82,11.82,0,0,0,4.16,5,10.8,10.8,0,0,0,6.12,1.76,8.87,8.87,0,0,0,4.28-.89,7.79,7.79,0,0,0,2.47-2.05c.58-.76,1-1.4,1.33-1.9h.51v4.26h4.11v-37h-4.25Zm-.85,15a8.26,8.26,0,0,1-2.7,3.73,7.67,7.67,0,0,1-8.79-.07,8.52,8.52,0,0,1-2.71-3.83,16.2,16.2,0,0,1,0-10.65,8.34,8.34,0,0,1,2.69-3.73,7.94,7.94,0,0,1,8.87-.07,7.91,7.91,0,0,1,2.67,3.64,15.1,15.1,0,0,1,.91,5.45A15.41,15.41,0,0,1,537.72,220.1Z"/><path class="cls-1" d="M570.12,205.11h-.36c-.31-.49-.75-1.1-1.31-1.86a7.5,7.5,0,0,0-2.42-2,8.66,8.66,0,0,0-4.29-.9,11,11,0,0,0-6.17,1.75,11.68,11.68,0,0,0-4.17,5,20,20,0,0,0,0,15.21,11.75,11.75,0,0,0,4.16,5,10.79,10.79,0,0,0,6.11,1.76,8.87,8.87,0,0,0,4.28-.89,7.68,7.68,0,0,0,2.47-2.05c.58-.76,1-1.4,1.34-1.9h.51v4.26h4.11v-37h-4.26Zm-.85,15a8.24,8.24,0,0,1-2.69,3.73,7.68,7.68,0,0,1-8.8-.07,8.58,8.58,0,0,1-2.7-3.83,15,15,0,0,1-.91-5.36,14.75,14.75,0,0,1,.89-5.29,8.27,8.27,0,0,1,2.69-3.73,7.94,7.94,0,0,1,8.87-.07,7.91,7.91,0,0,1,2.67,3.64,16.84,16.84,0,0,1,0,11Z"/><rect class="cls-1" x="582.76" y="200.7" width="4.26" height="27.73"/><path class="cls-1" d="M584.93,190.3a3,3,0,0,0-2.14.85,2.76,2.76,0,0,0,0,4.08,3.11,3.11,0,0,0,4.27,0,2.76,2.76,0,0,0,0-4.08A3,3,0,0,0,584.93,190.3Z"/><path class="cls-1" d="M601.73,205.46a7.38,7.38,0,0,1,4.35-1.3,6.55,6.55,0,0,1,4.49,1.48,6.63,6.63,0,0,1,2.15,3.37H617a9.38,9.38,0,0,0-1.86-4.55,10.07,10.07,0,0,0-3.85-3,12.44,12.44,0,0,0-5.27-1.08,11.74,11.74,0,0,0-6.56,1.83,12.31,12.31,0,0,0-4.37,5.07,18.73,18.73,0,0,0-.05,14.85,12.52,12.52,0,0,0,16.44,5.77,10.09,10.09,0,0,0,3.74-3.1,9.83,9.83,0,0,0,1.78-4.42h-4.27a6.24,6.24,0,0,1-1.33,2.6,6.15,6.15,0,0,1-2.29,1.66,7.53,7.53,0,0,1-3,.58,7.4,7.4,0,0,1-4.39-1.32,8.39,8.39,0,0,1-2.89-3.7,14.12,14.12,0,0,1-1-5.59,13.35,13.35,0,0,1,1-5.49A8.43,8.43,0,0,1,601.73,205.46Z"/><path class="cls-1" d="M634.18,224.6a7.49,7.49,0,0,1-1.16.07,5.49,5.49,0,0,1-1.78-.29,2.63,2.63,0,0,1-1.37-1.2,5.41,5.41,0,0,1-.53-2.69V204.31h5.92V200.7h-5.92v-6.64h-4.27v6.64h-4.18v3.61h4.18v17.33a6.7,6.7,0,0,0,1.14,4,7,7,0,0,0,2.85,2.37,8.61,8.61,0,0,0,3.53.77,9.57,9.57,0,0,0,2-.17,11,11,0,0,0,1.22-.33l-.87-3.83Z"/><path class="cls-1" d="M660.71,203.4a10.53,10.53,0,0,0-3.84-2.34,13.22,13.22,0,0,0-4.28-.72,11.78,11.78,0,0,0-6.57,1.83,12.22,12.22,0,0,0-4.36,5.09,17.25,17.25,0,0,0-1.56,7.52,16.9,16.9,0,0,0,1.56,7.47,11.79,11.79,0,0,0,4.46,5A13,13,0,0,0,653,229a13.76,13.76,0,0,0,5.07-.88,10.39,10.39,0,0,0,3.79-2.45,9,9,0,0,0,2.19-3.68L660,220.84a6.18,6.18,0,0,1-3.89,3.86,9.1,9.1,0,0,1-3,.48,8.81,8.81,0,0,1-4.53-1.13,7.67,7.67,0,0,1-3-3.3,11.34,11.34,0,0,1-1.06-4.74H664.5V214.2a18.08,18.08,0,0,0-1-6.53A11.2,11.2,0,0,0,660.71,203.4Zm-16.32,8.93a9.73,9.73,0,0,1,1-3.65,8.36,8.36,0,0,1,2.84-3.26,7.64,7.64,0,0,1,4.4-1.26,7.39,7.39,0,0,1,4,1.07,7.14,7.14,0,0,1,2.64,2.91,9.16,9.16,0,0,1,.93,4.19Z"/><path class="cls-1" d="M689.92,205.11h-.36c-.31-.49-.75-1.1-1.31-1.86a7.61,7.61,0,0,0-2.42-2,8.66,8.66,0,0,0-4.29-.9,11,11,0,0,0-6.17,1.75,11.68,11.68,0,0,0-4.17,5,20,20,0,0,0,0,15.21,11.8,11.8,0,0,0,4.15,5,10.85,10.85,0,0,0,6.12,1.76,8.87,8.87,0,0,0,4.28-.89,7.79,7.79,0,0,0,2.47-2.05c.58-.76,1-1.4,1.34-1.9h.51v4.26h4.11v-37h-4.26Zm-.85,15a8.24,8.24,0,0,1-2.69,3.73,7.68,7.68,0,0,1-8.8-.07,8.68,8.68,0,0,1-2.71-3.83,15.18,15.18,0,0,1-.91-5.36,14.75,14.75,0,0,1,.9-5.29,8.33,8.33,0,0,1,2.68-3.73,8,8,0,0,1,8.88-.07,7.91,7.91,0,0,1,2.67,3.64,15.11,15.11,0,0,1,.9,5.45A15.41,15.41,0,0,1,689.07,220.1Z"/><path class="cls-1" d="M727.83,224.6a7.35,7.35,0,0,1-1.15.07,5.49,5.49,0,0,1-1.78-.29,2.59,2.59,0,0,1-1.37-1.2,5.3,5.3,0,0,1-.53-2.69V204.31h5.92V200.7H723v-6.64h-4.27v6.64h-4.18v3.61h4.18v17.33a6.76,6.76,0,0,0,1.13,4,7,7,0,0,0,2.86,2.37,8.57,8.57,0,0,0,3.53.77,9.57,9.57,0,0,0,2-.17,10.13,10.13,0,0,0,1.21-.33l-.86-3.83Z"/><path class="cls-1" d="M752.89,202.13a12.15,12.15,0,0,0-17.56,5,17.12,17.12,0,0,0-1.58,7.57,16.88,16.88,0,0,0,1.58,7.51,12.17,12.17,0,0,0,22,0,16.88,16.88,0,0,0,1.58-7.51,17.12,17.12,0,0,0-1.58-7.57A12,12,0,0,0,752.89,202.13Zm.84,17.74a8.63,8.63,0,0,1-2.72,3.85,8.28,8.28,0,0,1-9.39,0,8.65,8.65,0,0,1-2.73-3.85,14.68,14.68,0,0,1-.88-5.16,14.87,14.87,0,0,1,.88-5.18,8.74,8.74,0,0,1,2.73-3.88,8.14,8.14,0,0,1,9.39,0,8.72,8.72,0,0,1,2.72,3.88,14.87,14.87,0,0,1,.89,5.18A14.68,14.68,0,0,1,753.73,219.87Z"/><path class="cls-1" d="M799.06,202.09a11,11,0,0,0-6.17-1.75,8.66,8.66,0,0,0-4.29.9,7.61,7.61,0,0,0-2.42,2c-.56.76-1,1.37-1.31,1.86h-.36V191.46h-4.26v37h4.12v-4.26h.5c.31.5.76,1.14,1.34,1.9a7.68,7.68,0,0,0,2.47,2.05A8.87,8.87,0,0,0,793,229a10.85,10.85,0,0,0,6.12-1.76,11.73,11.73,0,0,0,4.15-5,20,20,0,0,0,0-15.21A11.54,11.54,0,0,0,799.06,202.09Zm.5,17.84a8.6,8.6,0,0,1-2.71,3.83,7.68,7.68,0,0,1-8.8.07,8.24,8.24,0,0,1-2.69-3.73,15.41,15.41,0,0,1-.92-5.53,15.11,15.11,0,0,1,.9-5.45,8,8,0,0,1,2.67-3.64,7.94,7.94,0,0,1,8.87.07,8.29,8.29,0,0,1,2.7,3.73,16.2,16.2,0,0,1,0,10.65Z"/><path class="cls-1" d="M828.71,217.09a7.53,7.53,0,0,1-1.13,4.28,7.1,7.1,0,0,1-2.78,2.49,7.32,7.32,0,0,1-3.24.81,5.75,5.75,0,0,1-4.36-1.8,6.75,6.75,0,0,1-1.71-4.84V200.7h-4.26v17.62a13.27,13.27,0,0,0,1.15,5.86,8,8,0,0,0,3.18,3.47,9.25,9.25,0,0,0,4.62,1.14,8.76,8.76,0,0,0,5.21-1.47,9.16,9.16,0,0,0,3-3.58h.29v4.69H833V200.7h-4.26Z"/><rect class="cls-1" x="840.77" y="200.7" width="4.26" height="27.73"/><path class="cls-1" d="M842.93,190.3a3,3,0,0,0-2.14.85,2.78,2.78,0,0,0,0,4.08,3.12,3.12,0,0,0,4.28,0,2.78,2.78,0,0,0,0-4.08A3,3,0,0,0,842.93,190.3Z"/><rect class="cls-1" x="852.82" y="191.46" width="4.26" height="36.97"/><path class="cls-1" d="M883.8,205.11h-.36c-.31-.49-.75-1.1-1.31-1.86a7.61,7.61,0,0,0-2.42-2,8.66,8.66,0,0,0-4.29-.9,11,11,0,0,0-6.17,1.75,11.68,11.68,0,0,0-4.17,5,20,20,0,0,0,0,15.21,11.8,11.8,0,0,0,4.15,5,10.85,10.85,0,0,0,6.12,1.76,8.87,8.87,0,0,0,4.28-.89,7.79,7.79,0,0,0,2.47-2.05c.58-.76,1-1.4,1.34-1.9H884v4.26h4.11v-37H883.8Zm-.85,15a8.24,8.24,0,0,1-2.69,3.73,7.68,7.68,0,0,1-8.8-.07,8.68,8.68,0,0,1-2.71-3.83,15.18,15.18,0,0,1-.91-5.36,14.75,14.75,0,0,1,.9-5.29,8.33,8.33,0,0,1,2.68-3.73,8,8,0,0,1,8.88-.07,7.91,7.91,0,0,1,2.67,3.64,15.11,15.11,0,0,1,.9,5.45A15.41,15.41,0,0,1,883,220.1Z"/><path class="cls-1" d="M898.61,190.3a3,3,0,0,0-2.14.85,2.76,2.76,0,0,0,0,4.08,3.11,3.11,0,0,0,4.27,0,2.76,2.76,0,0,0,0-4.08A3,3,0,0,0,898.61,190.3Z"/><rect class="cls-1" x="896.44" y="200.7" width="4.26" height="27.73"/><path class="cls-1" d="M926,201.48a10.23,10.23,0,0,0-4.93-1.14,9.29,9.29,0,0,0-5.13,1.29A7.86,7.86,0,0,0,913,205h-.37V200.7H908.5v27.73h4.26V211.75a8.47,8.47,0,0,1,.92-4.12,6.27,6.27,0,0,1,2.52-2.58,7.37,7.37,0,0,1,3.63-.89,6,6,0,0,1,4.66,1.84,7.22,7.22,0,0,1,1.7,5.1v17.33h4.26V210.81a13,13,0,0,0-1.17-5.86A7.91,7.91,0,0,0,926,201.48Z"/><path class="cls-1" d="M957.31,205.11h-.44c-.31-.49-.75-1.1-1.32-1.86a7.69,7.69,0,0,0-2.46-2,8.76,8.76,0,0,0-4.3-.9,11.09,11.09,0,0,0-6.18,1.74,11.66,11.66,0,0,0-4.17,4.91,17.37,17.37,0,0,0-1.5,7.43,16.12,16.12,0,0,0,1.55,7.37,11.06,11.06,0,0,0,4.21,4.62,11.58,11.58,0,0,0,6,1.58,9.15,9.15,0,0,0,4.3-.85,7.59,7.59,0,0,0,2.46-2q.85-1.11,1.32-1.86h.37v5.63A5.93,5.93,0,0,1,955,234a9,9,0,0,1-5.54,1.62,9.55,9.55,0,0,1-4.06-.73,7.76,7.76,0,0,1-2.42-1.71c-.59-.66-1.08-1.24-1.47-1.75l-3.39,2.39a11.23,11.23,0,0,0,6,4.77,16.06,16.06,0,0,0,5.31.79,16.69,16.69,0,0,0,6-1.06,9.38,9.38,0,0,0,4.33-3.31,9.75,9.75,0,0,0,1.61-5.82V200.7h-4.11Zm-1,14.51a7.39,7.39,0,0,1-2.7,3.38,7.67,7.67,0,0,1-4.33,1.17,7.28,7.28,0,0,1-7.17-4.72,13.26,13.26,0,0,1-.91-5.1,14.24,14.24,0,0,1,.89-5.13,8.25,8.25,0,0,1,2.69-3.68,8,8,0,0,1,8.87-.07,7.87,7.87,0,0,1,2.67,3.59,14.4,14.4,0,0,1,.91,5.29A13.73,13.73,0,0,1,956.32,219.62Z"/><path class="cls-1" d="M996.3,213.19l-4.11-1a9.84,9.84,0,0,1-3.62-1.53,3.08,3.08,0,0,1-1.15-2.51,3.47,3.47,0,0,1,1.69-3,7.32,7.32,0,0,1,4.23-1.16,6.76,6.76,0,0,1,3,.6,5.31,5.31,0,0,1,1.89,1.51,7.77,7.77,0,0,1,1.06,1.86l3.82-1.08a9.78,9.78,0,0,0-3.34-4.76,10.39,10.39,0,0,0-6.48-1.81,12.57,12.57,0,0,0-5.22,1,8.88,8.88,0,0,0-3.63,2.83,6.82,6.82,0,0,0-1.33,4.16,6.7,6.7,0,0,0,1.78,4.77,11,11,0,0,0,5.59,2.81l4.62,1.08a6.46,6.46,0,0,1,3.1,1.47,3.25,3.25,0,0,1,1,2.43A3.72,3.72,0,0,1,997.5,224a7.89,7.89,0,0,1-4.73,1.27,7.28,7.28,0,0,1-4.24-1.12,5.59,5.59,0,0,1-2.2-3.36l-4,1a8.2,8.2,0,0,0,3.53,5.38,12.51,12.51,0,0,0,7,1.84,13.84,13.84,0,0,0,5.66-1.09,9.12,9.12,0,0,0,3.8-2.95,7.11,7.11,0,0,0,1.37-4.27,6.5,6.5,0,0,0-1.82-4.75A11.48,11.48,0,0,0,996.3,213.19Z"/><path class="cls-1" d="M1027.94,202.13a12.17,12.17,0,0,0-17.57,5,17.12,17.12,0,0,0-1.58,7.57,16.88,16.88,0,0,0,1.58,7.51,12.17,12.17,0,0,0,22,0,16.88,16.88,0,0,0,1.58-7.51,17.12,17.12,0,0,0-1.58-7.57A12,12,0,0,0,1027.94,202.13Zm.84,17.74a8.65,8.65,0,0,1-2.73,3.85,8.28,8.28,0,0,1-9.39,0,8.71,8.71,0,0,1-2.72-3.85,14.68,14.68,0,0,1-.89-5.16,14.87,14.87,0,0,1,.89-5.18,8.8,8.8,0,0,1,2.72-3.88,8.14,8.14,0,0,1,9.39,0,8.74,8.74,0,0,1,2.73,3.88,14.87,14.87,0,0,1,.88,5.18A14.68,14.68,0,0,1,1028.78,219.87Z"/><path class="cls-1" d="M1050.1,189.72a9.19,9.19,0,0,0-3.78.8,6.88,6.88,0,0,0-2.9,2.38,6.69,6.69,0,0,0-1.12,4v3.83h-4.48v3.61h4.48v24.12h4.26V204.31h6.21V200.7h-6.21v-2.81a4.63,4.63,0,0,1,.93-3.13,3.84,3.84,0,0,1,3-1.07,5.5,5.5,0,0,1,1.49.17l.89.27,1.23-3.68a9.72,9.72,0,0,0-1.48-.47A10.56,10.56,0,0,0,1050.1,189.72Z"/><path class="cls-1" d="M1069.74,224.6a7.49,7.49,0,0,1-1.16.07,5.53,5.53,0,0,1-1.78-.29,2.63,2.63,0,0,1-1.37-1.2,5.41,5.41,0,0,1-.53-2.69V204.31h5.92V200.7h-5.92v-6.64h-4.26v6.64h-4.19v3.61h4.19v17.33a6.69,6.69,0,0,0,1.13,4,7,7,0,0,0,2.85,2.37,8.64,8.64,0,0,0,3.53.77,9.57,9.57,0,0,0,2-.17,11,11,0,0,0,1.22-.33l-.87-3.83Z"/><polygon class="cls-1" points="1102.45 221.86 1102.16 221.86 1096.31 200.7 1091.76 200.7 1085.84 221.93 1085.55 221.93 1079.56 200.7 1075.08 200.7 1083.53 228.43 1087.71 228.43 1093.78 207.13 1094.21 207.13 1100.28 228.43 1104.47 228.43 1112.92 200.7 1108.44 200.7 1102.45 221.86"/><path class="cls-1" d="M1135.62,202a10.08,10.08,0,0,0-3.38-1.29,17.51,17.51,0,0,0-3.08-.32,16.5,16.5,0,0,0-4.24.57,10.73,10.73,0,0,0-4,2,9.73,9.73,0,0,0-2.9,3.94l4,1.44a7.83,7.83,0,0,1,2.43-2.85,7.7,7.7,0,0,1,4.79-1.34,5.87,5.87,0,0,1,4.39,1.49,5.65,5.65,0,0,1,1.46,4.14v.15a1.5,1.5,0,0,1-.73,1.44,6.16,6.16,0,0,1-2.32.59c-1,.12-2.42.28-4.1.5-1.29.17-2.56.39-3.84.68a13,13,0,0,0-3.47,1.27,6.57,6.57,0,0,0-2.51,2.34,7.11,7.11,0,0,0-.94,3.87,7.85,7.85,0,0,0,4.68,7.52,11.26,11.26,0,0,0,4.78,1,10.41,10.41,0,0,0,4.1-.72,8.21,8.21,0,0,0,2.69-1.76,7.52,7.52,0,0,0,1.44-1.93h.22v3.76h4.26V210.16a11,11,0,0,0-1.08-5.27A7.62,7.62,0,0,0,1135.62,202Zm-.46,16.44a6.59,6.59,0,0,1-.89,3.3,6.87,6.87,0,0,1-2.64,2.57,8.56,8.56,0,0,1-4.27,1,7.22,7.22,0,0,1-4.2-1.13,3.78,3.78,0,0,1-1.65-3.35,3.67,3.67,0,0,1,.87-2.57,5.51,5.51,0,0,1,2.31-1.43,18,18,0,0,1,3.1-.69l1.8-.22c.74-.1,1.5-.2,2.29-.33a17.09,17.09,0,0,0,2.09-.45,2.48,2.48,0,0,0,1.19-.59Z"/><path class="cls-1" d="M1158.84,200.27a8,8,0,0,0-4.47,1.28,6.65,6.65,0,0,0-2.75,3.34h-.29V200.7h-4.11v27.73h4.26V210.88a6.24,6.24,0,0,1,.91-3.35,6.45,6.45,0,0,1,2.49-2.31,7.56,7.56,0,0,1,3.6-.84,10.55,10.55,0,0,1,1.62.12l1,.17v-4.33c-.24,0-.6,0-1.07-.05Z"/><path class="cls-1" d="M1188.38,214.2a18.08,18.08,0,0,0-1-6.53,11.44,11.44,0,0,0-2.76-4.27,10.65,10.65,0,0,0-3.85-2.34,13.17,13.17,0,0,0-4.28-.72,11.74,11.74,0,0,0-6.56,1.83,12.24,12.24,0,0,0-4.37,5.09,17.25,17.25,0,0,0-1.56,7.52,16.9,16.9,0,0,0,1.56,7.47,11.79,11.79,0,0,0,4.46,5,13,13,0,0,0,6.91,1.78,13.83,13.83,0,0,0,5.07-.88,10.48,10.48,0,0,0,3.79-2.45,9.08,9.08,0,0,0,2.18-3.68l-4.11-1.16a6.24,6.24,0,0,1-3.89,3.86,9.15,9.15,0,0,1-3,.48,8.87,8.87,0,0,1-4.54-1.13,7.59,7.59,0,0,1-3-3.3,11.34,11.34,0,0,1-1.07-4.74h20.12Zm-20.11-1.87a9.37,9.37,0,0,1,1-3.65,8.28,8.28,0,0,1,2.84-3.26,7.59,7.59,0,0,1,4.39-1.26,7.45,7.45,0,0,1,4,1.07,7.14,7.14,0,0,1,2.64,2.91,9.29,9.29,0,0,1,.93,4.19Z"/></svg>